<svg xmlns="http://www.w3.org/2000/svg" viewBox="0 0 554.23 137.35"><defs><style>.cls-1{fill:#9c9b9b;}.cls-2{font-size:69.44px;fill:#1d1d1b;font-family:AbeatbyKai, abeatbyKai;}.cls-3,.cls-5{fill:#f18318;}.cls-3{font-family:AgencyFB-Reg, Agency FB;}.cls-4{fill:#fff;}</style></defs><title>Asset 1</title><g id="Layer_2" data-name="Layer 2"><g id="Layer_1-2" data-name="Layer 1"><rect class="cls-1" x="3.61" y="0.15" width="188.68" height="124.95" transform="translate(-0.1 0.15) rotate(-0.09)"/><text class="cls-2" transform="translate(211.61 63.45)">EYE CLUB <tspan class="cls-3"><tspan x="0" y="60">OPTICS</tspan></tspan></text><path class="cls-4" d="M189.23,88.32c-10.66,15.51-25.49,21.06-44.34,21.25-18.16-1.32-32-10.26-39.88-27-5.72-12.23-6-24.81.68-37.05a8,8,0,0,0-2.12-10.23,9,9,0,0,0-10.9,0,7.84,7.84,0,0,0-2.11,10.45,38.88,38.88,0,0,1,4.88,17.74c.87,18.49-9.5,35.08-26.89,43.17-21.09,9.82-47,3.36-60.19-15C-8.6,68.07,1.28,35,28.63,24.14c15.87-6.28,31.21-5,45.85,3.85,1,.59,2.86,2.45,3.43,2.86C72.15,37,72,36.77,68.85,40.37,63.22,35,61.49,33.16,53.6,31.84,30.51,28,10,46.42,11.9,69.38,13,83.31,24.39,95.7,39.15,99.1c20.65,4.75,40.93-8.16,44.24-28.29a31.92,31.92,0,0,0-3.16-20.07c-4-8-3-16.16,2.94-22.18a21.05,21.05,0,0,1,24.15-4.13,18.8,18.8,0,0,1,10.84,19.71,12.81,12.81,0,0,1-1.34,4.2c-11,21.82,2,46.54,26.33,49.94,12.85,1.79,29.9-5.89,38.34-19.75C185.68,71.66,194.28,81,189.23,88.32Z"/><rect class="cls-4" x="1.59" y="53.34" width="81.62" height="12.16" transform="translate(-29.88 49.15) rotate(-46.41)"/><path class="cls-5" d="M123,39.8c-.44-2.16-.69-4.08-1.24-5.9s-1.4-3.6-2.14-5.44c12.87-12.18,41.28-16,61.09.41,3.18,5.93-1.26,9.3-8.26,7.5C155.21,25.51,138.87,26.47,123,39.8Z"/></g></g></svg>